<svg width="18" height="18" viewBox="0 0 18 18" fill="none" xmlns="http://www.w3.org/2000/svg">
<path d="M15.2698 9.5467C14.9923 9.5467 14.7598 9.3367 14.7298 9.0592C14.5498 7.4092 13.6648 5.9242 12.2998 4.9792C12.0523 4.8067 11.9923 4.4692 12.1648 4.2217C12.3373 3.9742 12.6748 3.9142 12.9223 4.0867C14.5498 5.2192 15.5998 6.9892 15.8173 8.9467C15.8473 9.2467 15.6298 9.5167 15.3298 9.5467C15.3073 9.5467 15.2923 9.5467 15.2698 9.5467Z" fill="#292D32"/>
<path d="M2.80448 9.58588C2.78948 9.58588 2.76698 9.58588 2.75198 9.58588C2.45198 9.55588 2.23448 9.28588 2.26448 8.98588C2.46698 7.02838 3.50198 5.25838 5.11448 4.11838C5.35448 3.94588 5.69948 4.00588 5.87198 4.24588C6.04448 4.49338 5.98448 4.83088 5.74448 5.00338C4.39448 5.96338 3.51698 7.44838 3.35198 9.09088C3.32198 9.37588 3.08198 9.58588 2.80448 9.58588Z" fill="#292D32"/>
<path d="M11.9934 15.8253C11.0709 16.2678 10.0809 16.4928 9.04593 16.4928C7.96593 16.4928 6.93843 16.2528 5.97843 15.7653C5.70843 15.6378 5.60343 15.3077 5.73843 15.0377C5.86593 14.7677 6.19593 14.6627 6.46593 14.7902C6.93843 15.0302 7.44093 15.1952 7.95093 15.2927C8.64093 15.4277 9.34593 15.4353 10.0359 15.3153C10.5459 15.2253 11.0484 15.0678 11.5134 14.8428C11.7909 14.7153 12.1209 14.8202 12.2409 15.0977C12.3759 15.3677 12.2709 15.6978 11.9934 15.8253Z" fill="#292D32"/>
<path d="M9.03688 1.50781C7.87438 1.50781 6.92188 2.45281 6.92188 3.62281C6.92188 4.79281 7.86688 5.73781 9.03688 5.73781C10.2069 5.73781 11.1519 4.79281 11.1519 3.62281C11.1519 2.45281 10.2069 1.50781 9.03688 1.50781Z" fill="#292D32"/>
<path d="M3.78688 10.4023C2.62438 10.4023 1.67188 11.3473 1.67188 12.5173C1.67188 13.6873 2.61688 14.6323 3.78688 14.6323C4.95688 14.6323 5.90188 13.6873 5.90188 12.5173C5.90188 11.3473 4.94938 10.4023 3.78688 10.4023Z" fill="#292D32"/>
<path d="M14.2127 10.4023C13.0502 10.4023 12.0977 11.3473 12.0977 12.5173C12.0977 13.6873 13.0427 14.6323 14.2127 14.6323C15.3827 14.6323 16.3277 13.6873 16.3277 12.5173C16.3277 11.3473 15.3827 10.4023 14.2127 10.4023Z" fill="#292D32"/>
</svg>
