<svg width="30" height="30" viewBox="0 0 30 30" fill="none" xmlns="http://www.w3.org/2000/svg">
<path d="M28.302 23.4393C28.302 23.9193 28.1956 24.4127 27.9695 24.8927C27.7435 25.3727 27.451 25.826 27.0654 26.2527C26.4138 26.9727 25.6958 27.4927 24.8847 27.826C24.0868 28.1594 23.2225 28.3327 22.2918 28.3327C20.9355 28.3327 19.4861 28.0127 17.957 27.3594C16.4278 26.706 14.8987 25.826 13.3828 24.7194C11.8537 23.5994 10.4043 22.3593 9.02145 20.986C7.65187 19.5993 6.41526 18.146 5.31162 16.626C4.22127 15.106 3.34368 13.586 2.70542 12.0793C2.06717 10.5593 1.74805 9.10602 1.74805 7.71935C1.74805 6.81268 1.90761 5.94602 2.22674 5.14602C2.54586 4.33268 3.05114 3.58602 3.75588 2.91935C4.60688 2.07935 5.53766 1.66602 6.52164 1.66602C6.89395 1.66602 7.26626 1.74602 7.59869 1.90602C7.9444 2.06602 8.25023 2.30602 8.48958 2.65268L11.5745 7.01268C11.8138 7.34602 11.9867 7.65268 12.1063 7.94602C12.226 8.22602 12.2925 8.50602 12.2925 8.75935C12.2925 9.07935 12.1994 9.39935 12.0133 9.70602C11.8404 10.0127 11.5878 10.3327 11.2686 10.6527L10.2581 11.706C10.1118 11.8527 10.0453 12.026 10.0453 12.2393C10.0453 12.346 10.0586 12.4393 10.0852 12.546C10.1251 12.6527 10.165 12.7327 10.1916 12.8127C10.4309 13.2527 10.8431 13.826 11.4282 14.5193C12.0266 15.2127 12.6648 15.9193 13.3562 16.626C14.0743 17.3327 14.7657 17.986 15.4705 18.586C16.1619 19.1727 16.7337 19.5727 17.1858 19.8127C17.2522 19.8393 17.332 19.8793 17.4251 19.9193C17.5315 19.9593 17.6378 19.9727 17.7575 19.9727C17.9836 19.9727 18.1564 19.8927 18.3027 19.746L19.3133 18.746C19.6457 18.4127 19.9648 18.1593 20.2706 17.9993C20.5765 17.8127 20.8823 17.7193 21.2147 17.7193C21.4674 17.7193 21.7333 17.7727 22.0258 17.8927C22.3184 18.0127 22.6242 18.186 22.9566 18.4127L27.3579 21.546C27.7036 21.786 27.9429 22.066 28.0892 22.3993C28.2222 22.7327 28.302 23.066 28.302 23.4393Z" stroke="#212121" stroke-width="1.5" stroke-miterlimit="10"/>
</svg>
