<svg width="20" height="20" viewBox="0 0 20 20" fill="none" xmlns="http://www.w3.org/2000/svg">
<path d="M7.9752 15.6831C7.81686 15.6831 7.65853 15.6247 7.53353 15.4997L2.4752 10.4414C2.23353 10.1997 2.23353 9.79973 2.4752 9.55806L7.53353 4.49973C7.7752 4.25806 8.1752 4.25806 8.41686 4.49973C8.65853 4.7414 8.65853 5.1414 8.41686 5.38306L3.8002 9.99973L8.41686 14.6164C8.65853 14.8581 8.65853 15.2581 8.41686 15.4997C8.3002 15.6247 8.13353 15.6831 7.9752 15.6831Z" fill="#04BE4E"/>
<path d="M17.0831 10.6254H3.05811C2.71644 10.6254 2.43311 10.342 2.43311 10.0004C2.43311 9.6587 2.71644 9.37537 3.05811 9.37537H17.0831C17.4248 9.37537 17.7081 9.6587 17.7081 10.0004C17.7081 10.342 17.4248 10.6254 17.0831 10.6254Z" fill="#04BE4E"/>
</svg>
