<svg width="161" height="218" viewBox="0 0 161 218" fill="none" xmlns="http://www.w3.org/2000/svg">
<circle cx="155.529" cy="5.47087" r="5.47087" fill="#EBEBEB"/>
<circle cx="155.529" cy="80.4999" r="5.47087" fill="#EBEBEB"/>
<circle cx="155.529" cy="155.529" r="5.47087" fill="#EBEBEB"/>
<circle cx="155.529" cy="42.9855" r="5.47087" fill="#EBEBEB"/>
<circle cx="155.529" cy="118.015" r="5.47087" fill="#EBEBEB"/>
<circle cx="155.529" cy="193.044" r="5.47087" fill="#EBEBEB"/>
<circle cx="155.529" cy="24.2282" r="5.47087" fill="#EBEBEB"/>
<circle cx="155.529" cy="99.2572" r="5.47087" fill="#EBEBEB"/>
<circle cx="155.529" cy="174.286" r="5.47087" fill="#EBEBEB"/>
<circle cx="155.529" cy="61.7426" r="5.47087" fill="#EBEBEB"/>
<circle cx="155.529" cy="136.772" r="5.47087" fill="#EBEBEB"/>
<circle cx="155.529" cy="211.801" r="5.47087" fill="#EBEBEB"/>
<circle cx="136.772" cy="5.47087" r="5.47087" fill="#EBEBEB"/>
<circle cx="136.772" cy="80.4999" r="5.47087" fill="#EBEBEB"/>
<circle cx="136.772" cy="155.529" r="5.47087" fill="#EBEBEB"/>
<circle cx="136.772" cy="42.9855" r="5.47087" fill="#EBEBEB"/>
<circle cx="136.772" cy="118.015" r="5.47087" fill="#EBEBEB"/>
<circle cx="136.772" cy="193.044" r="5.47087" fill="#EBEBEB"/>
<circle cx="136.772" cy="24.2282" r="5.47087" fill="#EBEBEB"/>
<circle cx="136.772" cy="99.2572" r="5.47087" fill="#EBEBEB"/>
<circle cx="136.772" cy="174.286" r="5.47087" fill="#EBEBEB"/>
<circle cx="136.772" cy="61.7426" r="5.47087" fill="#EBEBEB"/>
<circle cx="136.772" cy="136.772" r="5.47087" fill="#EBEBEB"/>
<circle cx="136.772" cy="211.801" r="5.47087" fill="#EBEBEB"/>
<circle cx="118.015" cy="5.47087" r="5.47087" fill="#EBEBEB"/>
<circle cx="118.015" cy="80.4999" r="5.47087" fill="#EBEBEB"/>
<circle cx="118.015" cy="155.529" r="5.47087" fill="#EBEBEB"/>
<circle cx="118.015" cy="42.9855" r="5.47087" fill="#EBEBEB"/>
<circle cx="118.015" cy="118.015" r="5.47087" fill="#EBEBEB"/>
<circle cx="118.015" cy="193.044" r="5.47087" fill="#EBEBEB"/>
<circle cx="118.015" cy="24.2282" r="5.47087" fill="#EBEBEB"/>
<circle cx="118.015" cy="99.2572" r="5.47087" fill="#EBEBEB"/>
<circle cx="118.015" cy="174.286" r="5.47087" fill="#EBEBEB"/>
<circle cx="118.015" cy="61.7426" r="5.47087" fill="#EBEBEB"/>
<circle cx="118.015" cy="136.772" r="5.47087" fill="#EBEBEB"/>
<circle cx="118.015" cy="211.801" r="5.47087" fill="#EBEBEB"/>
<circle cx="99.2572" cy="5.47087" r="5.47087" fill="#EBEBEB"/>
<circle cx="99.2572" cy="80.4999" r="5.47087" fill="#EBEBEB"/>
<circle cx="99.2572" cy="155.529" r="5.47087" fill="#EBEBEB"/>
<circle cx="99.2572" cy="42.9855" r="5.47087" fill="#EBEBEB"/>
<circle cx="99.2572" cy="118.015" r="5.47087" fill="#EBEBEB"/>
<circle cx="99.2572" cy="193.044" r="5.47087" fill="#EBEBEB"/>
<circle cx="99.2572" cy="24.2282" r="5.47087" fill="#EBEBEB"/>
<circle cx="99.2572" cy="99.2572" r="5.47087" fill="#EBEBEB"/>
<circle cx="99.2572" cy="174.286" r="5.47087" fill="#EBEBEB"/>
<circle cx="99.2572" cy="61.7426" r="5.47087" fill="#EBEBEB"/>
<circle cx="99.2572" cy="136.772" r="5.47087" fill="#EBEBEB"/>
<circle cx="99.2572" cy="211.801" r="5.47087" fill="#EBEBEB"/>
<circle cx="80.4999" cy="5.47087" r="5.47087" fill="#EBEBEB"/>
<circle cx="80.4999" cy="80.4999" r="5.47087" fill="#EBEBEB"/>
<circle cx="80.4999" cy="155.529" r="5.47087" fill="#EBEBEB"/>
<circle cx="80.4999" cy="42.9855" r="5.47087" fill="#EBEBEB"/>
<circle cx="80.4999" cy="118.015" r="5.47087" fill="#EBEBEB"/>
<circle cx="80.4999" cy="193.044" r="5.47087" fill="#EBEBEB"/>
<circle cx="80.4999" cy="24.2282" r="5.47087" fill="#EBEBEB"/>
<circle cx="80.4999" cy="99.2572" r="5.47087" fill="#EBEBEB"/>
<circle cx="80.4999" cy="174.286" r="5.47087" fill="#EBEBEB"/>
<circle cx="80.4999" cy="61.7426" r="5.47087" fill="#EBEBEB"/>
<circle cx="80.4999" cy="136.772" r="5.47087" fill="#EBEBEB"/>
<circle cx="80.4999" cy="211.801" r="5.47087" fill="#EBEBEB"/>
<circle cx="61.7426" cy="5.47087" r="5.47087" fill="#EBEBEB"/>
<circle cx="61.7426" cy="80.4999" r="5.47087" fill="#EBEBEB"/>
<circle cx="61.7426" cy="155.529" r="5.47087" fill="#EBEBEB"/>
<circle cx="61.7426" cy="42.9855" r="5.47087" fill="#EBEBEB"/>
<circle cx="61.7426" cy="118.015" r="5.47087" fill="#EBEBEB"/>
<circle cx="61.7426" cy="193.044" r="5.47087" fill="#EBEBEB"/>
<circle cx="61.7426" cy="24.2282" r="5.47087" fill="#EBEBEB"/>
<circle cx="61.7426" cy="99.2572" r="5.47087" fill="#EBEBEB"/>
<circle cx="61.7426" cy="174.286" r="5.47087" fill="#EBEBEB"/>
<circle cx="61.7426" cy="61.7426" r="5.47087" fill="#EBEBEB"/>
<circle cx="61.7426" cy="136.772" r="5.47087" fill="#EBEBEB"/>
<circle cx="61.7426" cy="211.801" r="5.47087" fill="#EBEBEB"/>
<circle cx="42.9855" cy="5.47087" r="5.47087" fill="#EBEBEB"/>
<circle cx="42.9855" cy="80.4999" r="5.47087" fill="#EBEBEB"/>
<circle cx="42.9855" cy="155.529" r="5.47087" fill="#EBEBEB"/>
<circle cx="42.9855" cy="42.9855" r="5.47087" fill="#EBEBEB"/>
<circle cx="42.9855" cy="118.015" r="5.47087" fill="#EBEBEB"/>
<circle cx="42.9855" cy="193.044" r="5.47087" fill="#EBEBEB"/>
<circle cx="42.9855" cy="24.2282" r="5.47087" fill="#EBEBEB"/>
<circle cx="42.9855" cy="99.2572" r="5.47087" fill="#EBEBEB"/>
<circle cx="42.9855" cy="174.286" r="5.47087" fill="#EBEBEB"/>
<circle cx="42.9855" cy="61.7426" r="5.47087" fill="#EBEBEB"/>
<circle cx="42.9855" cy="136.772" r="5.47087" fill="#EBEBEB"/>
<circle cx="42.9855" cy="211.801" r="5.47087" fill="#EBEBEB"/>
<circle cx="24.2282" cy="5.47087" r="5.47087" fill="#EBEBEB"/>
<circle cx="24.2282" cy="80.4999" r="5.47087" fill="#EBEBEB"/>
<circle cx="24.2282" cy="155.529" r="5.47087" fill="#EBEBEB"/>
<circle cx="24.2282" cy="42.9855" r="5.47087" fill="#EBEBEB"/>
<circle cx="24.2282" cy="118.015" r="5.47087" fill="#EBEBEB"/>
<circle cx="24.2282" cy="193.044" r="5.47087" fill="#EBEBEB"/>
<circle cx="24.2282" cy="24.2282" r="5.47087" fill="#EBEBEB"/>
<circle cx="24.2282" cy="99.2572" r="5.47087" fill="#EBEBEB"/>
<circle cx="24.2282" cy="174.286" r="5.47087" fill="#EBEBEB"/>
<circle cx="24.2282" cy="61.7426" r="5.47087" fill="#EBEBEB"/>
<circle cx="24.2282" cy="136.772" r="5.47087" fill="#EBEBEB"/>
<circle cx="24.2282" cy="211.801" r="5.47087" fill="#EBEBEB"/>
<circle cx="5.47087" cy="5.47087" r="5.47087" fill="#EBEBEB"/>
<circle cx="5.47087" cy="80.4999" r="5.47087" fill="#EBEBEB"/>
<circle cx="5.47087" cy="155.529" r="5.47087" fill="#EBEBEB"/>
<circle cx="5.47087" cy="42.9855" r="5.47087" fill="#EBEBEB"/>
<circle cx="5.47087" cy="118.015" r="5.47087" fill="#EBEBEB"/>
<circle cx="5.47087" cy="193.044" r="5.47087" fill="#EBEBEB"/>
<circle cx="5.47087" cy="24.2282" r="5.47087" fill="#EBEBEB"/>
<circle cx="5.47087" cy="99.2572" r="5.47087" fill="#EBEBEB"/>
<circle cx="5.47087" cy="174.286" r="5.47087" fill="#EBEBEB"/>
<circle cx="5.47087" cy="61.7426" r="5.47087" fill="#EBEBEB"/>
<circle cx="5.47087" cy="136.772" r="5.47087" fill="#EBEBEB"/>
<circle cx="5.47087" cy="211.801" r="5.47087" fill="#EBEBEB"/>
</svg>
