<svg width="241" height="41" viewBox="0 0 241 41" fill="none" xmlns="http://www.w3.org/2000/svg">
<path d="M236.057 31.3635C236.057 32.633 235.84 33.5757 235.405 34.1913C234.974 34.807 234.297 35.1148 233.376 35.1148C232.464 35.1148 231.79 34.8139 231.351 34.2122C230.917 33.607 230.69 32.7061 230.673 31.5096V30.0591C230.673 28.807 230.889 27.8765 231.32 27.2678C231.755 26.6557 232.437 26.3496 233.365 26.3496C234.283 26.3496 234.958 26.6435 235.39 27.2313C235.824 27.8191 236.047 28.727 236.057 29.9548V31.3635ZM234.972 29.8765C234.972 28.9617 234.843 28.2939 234.586 27.873C234.329 27.4522 233.922 27.2417 233.365 27.2417C232.809 27.2417 232.403 27.4504 232.15 27.8678C231.896 28.2852 231.765 28.9287 231.758 29.7983V31.5304C231.758 32.4522 231.892 33.1339 232.16 33.5757C232.428 34.0139 232.833 34.233 233.376 34.233C233.911 34.233 234.308 34.0261 234.565 33.6122C234.826 33.1983 234.962 32.5461 234.972 31.6557V29.8765Z" fill="#616161"/>
<path d="M138.285 30.2052H139.099C139.61 30.1983 140.012 30.0643 140.304 29.8035C140.6 29.5426 140.748 29.1896 140.748 28.7443C140.748 27.7426 140.249 27.2417 139.25 27.2417C138.784 27.2417 138.41 27.3757 138.129 27.6435C137.85 27.9113 137.711 28.2661 137.711 28.7078H136.626C136.626 28.033 136.873 27.4713 137.367 27.0226C137.861 26.5739 138.489 26.3496 139.25 26.3496C140.057 26.3496 140.689 26.5635 141.144 26.9913C141.6 27.4157 141.828 28.007 141.828 28.7652C141.828 29.1374 141.708 29.4974 141.468 29.8452C141.228 30.193 140.901 30.4522 140.487 30.6226C140.957 30.7722 141.318 31.0191 141.572 31.3635C141.83 31.7043 141.958 32.1235 141.958 32.6209C141.958 33.3861 141.708 33.993 141.207 34.4417C140.71 34.8904 140.061 35.1148 139.261 35.1148C138.457 35.1148 137.805 34.8991 137.304 34.4678C136.803 34.033 136.553 33.4609 136.553 32.7513H137.638C137.638 33.2 137.784 33.56 138.077 33.8313C138.372 34.0991 138.765 34.233 139.256 34.233C139.781 34.233 140.181 34.0974 140.456 33.8261C140.734 33.5513 140.873 33.1583 140.873 32.647C140.873 32.1496 140.72 31.7687 140.414 31.5043C140.111 31.2365 139.673 31.0991 139.099 31.0922H138.285V30.2052ZM148.796 31.3635C148.796 32.633 148.578 33.5757 148.143 34.1913C147.712 34.807 147.036 35.1148 146.114 35.1148C145.203 35.1148 144.528 34.8139 144.09 34.2122C143.655 33.607 143.429 32.7061 143.411 31.5096V30.0591C143.411 28.807 143.627 27.8765 144.058 27.2678C144.493 26.6557 145.175 26.3496 146.103 26.3496C147.022 26.3496 147.697 26.6435 148.128 27.2313C148.563 27.8191 148.785 28.727 148.796 29.9548V31.3635ZM147.71 29.8765C147.71 28.9617 147.582 28.2939 147.324 27.873C147.067 27.4522 146.66 27.2417 146.103 27.2417C145.547 27.2417 145.142 27.4504 144.888 27.8678C144.634 28.2852 144.503 28.9287 144.497 29.7983V31.5304C144.497 32.4522 144.63 33.1339 144.898 33.5757C145.166 34.0139 145.571 34.233 146.114 34.233C146.65 34.233 147.046 34.0261 147.303 33.6122C147.564 33.1983 147.7 32.5461 147.71 31.6557V29.8765ZM155.534 31.3635C155.534 32.633 155.317 33.5757 154.882 34.1913C154.45 34.807 153.774 35.1148 152.852 35.1148C151.941 35.1148 151.266 34.8139 150.828 34.2122C150.393 33.607 150.167 32.7061 150.15 31.5096V30.0591C150.15 28.807 150.365 27.8765 150.797 27.2678C151.231 26.6557 151.913 26.3496 152.842 26.3496C153.76 26.3496 154.435 26.6435 154.866 27.2313C155.301 27.8191 155.524 28.727 155.534 29.9548V31.3635ZM154.449 29.8765C154.449 28.9617 154.32 28.2939 154.063 27.873C153.805 27.4522 153.398 27.2417 152.842 27.2417C152.285 27.2417 151.88 27.4504 151.626 27.8678C151.372 28.2852 151.242 28.9287 151.235 29.7983V31.5304C151.235 32.4522 151.369 33.1339 151.637 33.5757C151.904 34.0139 152.31 34.233 152.852 34.233C153.388 34.233 153.784 34.0261 154.042 33.6122C154.303 33.1983 154.438 32.5461 154.449 31.6557V29.8765ZM156.997 36.7009L156.387 36.2783C156.752 35.767 156.944 35.24 156.961 34.6974V33.7165H158.02V34.567C158.02 34.96 157.923 35.353 157.728 35.7461C157.537 36.1426 157.293 36.4609 156.997 36.7009ZM164.628 31.3635C164.628 32.633 164.41 33.5757 163.976 34.1913C163.544 34.807 162.868 35.1148 161.946 35.1148C161.035 35.1148 160.36 34.8139 159.922 34.2122C159.487 33.607 159.261 32.7061 159.243 31.5096V30.0591C159.243 28.807 159.459 27.8765 159.89 27.2678C160.325 26.6557 161.007 26.3496 161.936 26.3496C162.854 26.3496 163.529 26.6435 163.96 27.2313C164.395 27.8191 164.617 28.727 164.628 29.9548V31.3635ZM163.542 29.8765C163.542 28.9617 163.414 28.2939 163.156 27.873C162.899 27.4522 162.492 27.2417 161.936 27.2417C161.379 27.2417 160.974 27.4504 160.72 27.8678C160.466 28.2852 160.336 28.9287 160.329 29.7983V31.5304C160.329 32.4522 160.462 33.1339 160.73 33.5757C160.998 34.0139 161.403 34.233 161.946 34.233C162.482 34.233 162.878 34.0261 163.136 33.6122C163.396 33.1983 163.532 32.5461 163.542 31.6557V29.8765ZM171.366 31.3635C171.366 32.633 171.149 33.5757 170.714 34.1913C170.283 34.807 169.606 35.1148 168.684 35.1148C167.773 35.1148 167.098 34.8139 166.66 34.2122C166.225 33.607 165.999 32.7061 165.982 31.5096V30.0591C165.982 28.807 166.197 27.8765 166.629 27.2678C167.063 26.6557 167.745 26.3496 168.674 26.3496C169.592 26.3496 170.267 26.6435 170.698 27.2313C171.133 27.8191 171.356 28.727 171.366 29.9548V31.3635ZM170.281 29.8765C170.281 28.9617 170.152 28.2939 169.895 27.873C169.637 27.4522 169.23 27.2417 168.674 27.2417C168.117 27.2417 167.712 27.4504 167.458 27.8678C167.204 28.2852 167.074 28.9287 167.067 29.7983V31.5304C167.067 32.4522 167.201 33.1339 167.469 33.5757C167.736 34.0139 168.142 34.233 168.684 34.233C169.22 34.233 169.616 34.0261 169.874 33.6122C170.135 33.1983 170.27 32.5461 170.281 31.6557V29.8765ZM178.104 31.3635C178.104 32.633 177.887 33.5757 177.452 34.1913C177.021 34.807 176.344 35.1148 175.423 35.1148C174.511 35.1148 173.836 34.8139 173.398 34.2122C172.963 33.607 172.737 32.7061 172.72 31.5096V30.0591C172.72 28.807 172.936 27.8765 173.367 27.2678C173.802 26.6557 174.483 26.3496 175.412 26.3496C176.33 26.3496 177.005 26.6435 177.436 27.2313C177.871 27.8191 178.094 28.727 178.104 29.9548V31.3635ZM177.019 29.8765C177.019 28.9617 176.89 28.2939 176.633 27.873C176.376 27.4522 175.969 27.2417 175.412 27.2417C174.856 27.2417 174.45 27.4504 174.196 27.8678C173.943 28.2852 173.812 28.9287 173.805 29.7983V31.5304C173.805 32.4522 173.939 33.1339 174.207 33.5757C174.475 34.0139 174.88 34.233 175.423 34.233C175.958 34.233 176.355 34.0261 176.612 33.6122C176.873 33.1983 177.009 32.5461 177.019 31.6557V29.8765Z" fill="#616161"/>
<line x1="223" y1="9.5" x2="158" y2="9.5" stroke="#04B64B" stroke-width="3"/>
<path d="M153 9H1" stroke="#616161" stroke-linecap="round"/>
<circle cx="232" cy="9" r="9" fill="#04B64B"/>
<ellipse cx="156.5" cy="9" rx="9.5" ry="9" fill="#04B64B"/>
</svg>
