<svg width="111" height="13" viewBox="0 0 111 13" fill="none" xmlns="http://www.w3.org/2000/svg">
<path d="M0.147727 12V0.363636H7.60227V2.13068H2.25568V5.28977H7.09091V7.05682H2.25568V12H0.147727ZM9.52273 12V0.363636H11.6307V10.233H16.7557V12H9.52273ZM28.5298 6.18182C28.5298 7.43561 28.295 8.50947 27.8253 9.40341C27.3594 10.2936 26.723 10.9754 25.9162 11.4489C25.1132 11.9223 24.2022 12.1591 23.1832 12.1591C22.1643 12.1591 21.2514 11.9223 20.4446 11.4489C19.6416 10.9716 19.0052 10.2879 18.5355 9.39773C18.0696 8.50379 17.8366 7.43182 17.8366 6.18182C17.8366 4.92803 18.0696 3.85606 18.5355 2.96591C19.0052 2.07197 19.6416 1.38826 20.4446 0.914772C21.2514 0.441287 22.1643 0.204545 23.1832 0.204545C24.2022 0.204545 25.1132 0.441287 25.9162 0.914772C26.723 1.38826 27.3594 2.07197 27.8253 2.96591C28.295 3.85606 28.5298 4.92803 28.5298 6.18182ZM26.4105 6.18182C26.4105 5.29924 26.2723 4.55492 25.9957 3.94886C25.723 3.33902 25.3442 2.87879 24.8594 2.56818C24.3745 2.25379 23.8158 2.09659 23.1832 2.09659C22.5507 2.09659 21.992 2.25379 21.5071 2.56818C21.0223 2.87879 20.6416 3.33902 20.3651 3.94886C20.0923 4.55492 19.956 5.29924 19.956 6.18182C19.956 7.06439 20.0923 7.81061 20.3651 8.42045C20.6416 9.02652 21.0223 9.48674 21.5071 9.80114C21.992 10.1117 22.5507 10.267 23.1832 10.267C23.8158 10.267 24.3745 10.1117 24.8594 9.80114C25.3442 9.48674 25.723 9.02652 25.9957 8.42045C26.2723 7.81061 26.4105 7.06439 26.4105 6.18182ZM32.6747 12L29.3906 0.363636H31.6577L33.7543 8.91477H33.8622L36.1009 0.363636H38.1634L40.4077 8.92045H40.5099L42.6065 0.363636H44.8736L41.5895 12H39.5099L37.1804 3.83523H37.0895L34.7543 12H32.6747ZM46.3352 12V0.363636H53.9034V2.13068H48.4432V5.28977H53.5114V7.05682H48.4432V10.233H53.9489V12H46.3352ZM56.054 12V0.363636H60.4176C61.3116 0.363636 62.0616 0.518939 62.6676 0.829545C63.2775 1.14015 63.7377 1.57576 64.0483 2.13636C64.3627 2.69318 64.5199 3.3428 64.5199 4.08523C64.5199 4.83144 64.3608 5.47917 64.0426 6.02841C63.7282 6.57386 63.2642 6.99621 62.6506 7.29545C62.0369 7.59091 61.2831 7.73864 60.3892 7.73864H57.2812V5.98864H60.1051C60.6278 5.98864 61.0559 5.91667 61.3892 5.77273C61.7225 5.625 61.9688 5.41098 62.1278 5.13068C62.2907 4.84659 62.3722 4.49811 62.3722 4.08523C62.3722 3.67235 62.2907 3.32008 62.1278 3.02841C61.965 2.73295 61.7169 2.50947 61.3835 2.35795C61.0502 2.20265 60.6203 2.125 60.0938 2.125H58.1619V12H56.054ZM62.0653 6.72727L64.946 12H62.5938L59.7642 6.72727H62.0653Z" fill="#121212"/>
<path d="M80.3892 4.28977H78.2642C78.2036 3.94129 78.0919 3.63258 77.929 3.36364C77.7661 3.09091 77.5634 2.85985 77.321 2.67045C77.0786 2.48106 76.8021 2.33901 76.4915 2.24432C76.1847 2.14583 75.8532 2.09659 75.4972 2.09659C74.8646 2.09659 74.304 2.25568 73.8153 2.57386C73.3267 2.88826 72.9441 3.35038 72.6676 3.96023C72.3911 4.56629 72.2528 5.30682 72.2528 6.18182C72.2528 7.07197 72.3911 7.82197 72.6676 8.43182C72.9479 9.03788 73.3305 9.49621 73.8153 9.80682C74.304 10.1136 74.8627 10.267 75.4915 10.267C75.84 10.267 76.1657 10.2216 76.4688 10.1307C76.7756 10.036 77.0502 9.89773 77.2926 9.71591C77.5388 9.53409 77.7453 9.31061 77.9119 9.04545C78.0824 8.7803 78.1998 8.47727 78.2642 8.13636L80.3892 8.14773C80.3097 8.70076 80.1373 9.2197 79.8722 9.70455C79.6108 10.1894 79.268 10.6174 78.8438 10.9886C78.4195 11.3561 77.9233 11.6439 77.3551 11.8523C76.7869 12.0568 76.1563 12.1591 75.4631 12.1591C74.4403 12.1591 73.5275 11.9223 72.7244 11.4489C71.9214 10.9754 71.2888 10.2917 70.8267 9.39773C70.3646 8.50379 70.1335 7.43182 70.1335 6.18182C70.1335 4.92803 70.3665 3.85606 70.8324 2.96591C71.2983 2.07197 71.9328 1.38826 72.7358 0.914772C73.5388 0.441287 74.4479 0.204545 75.4631 0.204545C76.1108 0.204545 76.7131 0.295454 77.2699 0.477272C77.8267 0.659091 78.3229 0.926136 78.7585 1.27841C79.1941 1.62689 79.5521 2.05492 79.8324 2.5625C80.1165 3.06629 80.3021 3.64205 80.3892 4.28977ZM83.6733 12H81.4233L85.5199 0.363636H88.1222L92.2244 12H89.9744L86.8665 2.75H86.7756L83.6733 12ZM83.7472 7.4375H89.8835V9.13068H83.7472V7.4375ZM93.7571 12V0.363636H101.212V2.13068H95.8651V5.28977H100.7V7.05682H95.8651V12H93.7571ZM103.132 12V0.363636H110.7V2.13068H105.24V5.28977H110.308V7.05682H105.24V10.233H110.746V12H103.132Z" fill="#04BE4E"/>
</svg>
