<svg width="20" height="18" viewBox="0 0 20 18" fill="none" xmlns="http://www.w3.org/2000/svg">
<path d="M9.59964 2.62962L10 3.16475L10.4004 2.62962C11.3204 1.39983 12.7949 0.600098 14.44 0.600098C17.2315 0.600098 19.5 2.8739 19.5 5.6901C19.5 6.82572 19.3189 7.87385 19.0043 8.84618L19.0032 8.84944C18.249 11.2361 16.7035 13.1597 15.0354 14.5934C13.365 16.029 11.6004 16.9484 10.4589 17.3367L10.4589 17.3367L10.4536 17.3386C10.3537 17.3738 10.1893 17.4001 10 17.4001C9.81075 17.4001 9.64625 17.3738 9.54641 17.3386L9.54642 17.3386L9.54106 17.3367C8.3996 16.9484 6.635 16.029 4.96465 14.5934C3.29649 13.1597 1.75096 11.2361 0.996763 8.84944L0.996774 8.84944L0.995722 8.84619C0.681141 7.87385 0.5 6.82572 0.5 5.6901C0.5 2.8739 2.76848 0.600098 5.56 0.600098C7.2051 0.600098 8.67958 1.39983 9.59964 2.62962Z" fill="#04BE4E" stroke="#04BE4E"/>
</svg>
