<svg width="48" height="48" viewBox="0 0 48 48" fill="none" xmlns="http://www.w3.org/2000/svg">
<path d="M5.50012 37.3001C4.68012 37.3001 4.00012 36.6201 4.00012 35.8001V24.4001C3.90012 18.9801 5.92013 13.8601 9.68013 10.0201C13.4401 6.2001 18.4801 4.1001 23.9001 4.1001C34.9801 4.1001 44.0001 13.1201 44.0001 24.2001V35.6001C44.0001 36.4201 43.3201 37.1001 42.5001 37.1001C41.6801 37.1001 41.0001 36.4201 41.0001 35.6001V24.2001C41.0001 14.7801 33.3401 7.1001 23.9001 7.1001C19.2801 7.1001 15.0001 8.8801 11.8201 12.1201C8.62012 15.3801 6.92012 19.7201 7.00012 24.3601V35.7801C7.00012 36.6201 6.34012 37.3001 5.50012 37.3001Z" fill="#68D895"/>
<path d="M11.88 24.8999H11.62C7.42 24.8999 4 28.3199 4 32.5199V36.2799C4 40.4799 7.42 43.8999 11.62 43.8999H11.88C16.08 43.8999 19.5 40.4799 19.5 36.2799V32.5199C19.5 28.3199 16.08 24.8999 11.88 24.8999Z" fill="#04BE4E"/>
<path d="M36.38 24.8999H36.12C31.92 24.8999 28.5 28.3199 28.5 32.5199V36.2799C28.5 40.4799 31.92 43.8999 36.12 43.8999H36.38C40.58 43.8999 44 40.4799 44 36.2799V32.5199C44 28.3199 40.58 24.8999 36.38 24.8999Z" fill="#04BE4E"/>
</svg>
