<svg width="34" height="34" viewBox="0 0 34 34" fill="none" xmlns="http://www.w3.org/2000/svg">
<path fill-rule="evenodd" clip-rule="evenodd" d="M9.66758 0.636475H24.3318C29.312 0.636475 33.3637 4.68813 33.3635 9.66802V24.3322C33.3635 29.3121 29.312 33.3637 24.3318 33.3637H9.66758C4.6877 33.3637 0.63623 29.3123 0.63623 24.3322V9.66802C0.63623 4.68813 4.6877 0.636475 9.66758 0.636475ZM24.332 30.46C27.7109 30.46 30.46 27.7112 30.46 24.3322H30.4598V9.66802C30.4598 6.28925 27.7107 3.5402 24.3318 3.5402H9.66758C6.28881 3.5402 3.53995 6.28925 3.53995 9.66802V24.3322C3.53995 27.7112 6.28881 30.4602 9.66758 30.46H24.332ZM8.42844 17.0003C8.42844 12.2738 12.2735 8.42868 16.9999 8.42868C21.7262 8.42868 25.5713 12.2738 25.5713 17.0003C25.5713 21.7266 21.7262 25.5715 16.9999 25.5715C12.2735 25.5715 8.42844 21.7266 8.42844 17.0003ZM11.3798 17.0001C11.3798 20.0989 13.9011 22.6199 16.9999 22.6199C20.0986 22.6199 22.6199 20.0989 22.6199 17.0001C22.6199 13.9011 20.0988 11.3799 16.9999 11.3799C13.9009 11.3799 11.3798 13.9011 11.3798 17.0001Z" fill="#616161"/>
</svg>
