<svg width="48" height="48" viewBox="0 0 48 48" fill="none" xmlns="http://www.w3.org/2000/svg">
<path d="M38 18C38 20.9 37.14 23.56 35.66 25.78C33.5 28.98 30.08 31.24 26.1 31.82C25.42 31.94 24.72 32 24 32C23.28 32 22.58 31.94 21.9 31.82C17.92 31.24 14.5 28.98 12.34 25.78C10.86 23.56 10 20.9 10 18C10 10.26 16.26 4 24 4C31.74 4 38 10.26 38 18Z" fill="#68D895"/>
<path d="M42.5002 36.9398L39.2002 37.7198C38.4602 37.8998 37.8802 38.4598 37.7202 39.1998L37.0202 42.1398C36.6402 43.7398 34.6002 44.2198 33.5402 42.9598L24.0002 31.9998L14.4602 42.9798C13.4002 44.2398 11.3602 43.7598 10.9802 42.1598L10.2802 39.2198C10.1002 38.4798 9.52016 37.8998 8.80016 37.7398L5.50016 36.9598C3.98016 36.5998 3.44016 34.6998 4.54016 33.5998L12.3402 25.7998C14.5002 28.9998 17.9202 31.2598 21.9002 31.8398C22.5802 31.9598 23.2802 32.0198 24.0002 32.0198C24.7202 32.0198 25.4202 31.9598 26.1002 31.8398C30.0802 31.2598 33.5002 28.9998 35.6602 25.7998L43.4602 33.5998C44.5602 34.6798 44.0202 36.5798 42.5002 36.9398Z" fill="#04BE4E"/>
<path d="M25.6524 11.6384L26.9415 14.2016C27.1163 14.5491 27.5752 14.8967 27.9903 14.9619L30.3283 15.3529C31.8141 15.5918 32.1637 16.6779 31.093 17.7423L29.2795 19.5453C28.9736 19.8494 28.7988 20.4359 28.908 20.8704L29.4324 23.1078C29.8476 24.8673 28.908 25.5623 27.3348 24.6283L25.1498 23.3467C24.7565 23.1077 24.101 23.1077 23.7077 23.3467L21.5227 24.6283C19.9495 25.5406 19.01 24.8673 19.4251 23.1078L19.9495 20.8704C20.0369 20.4576 19.884 19.8494 19.5781 19.5453L17.7645 17.7423C16.6939 16.6779 17.0435 15.6135 18.5293 15.3529L20.8672 14.9619C21.2605 14.8967 21.7194 14.5491 21.8942 14.2016L23.1833 11.6384C23.817 10.2481 24.9532 10.2481 25.6524 11.6384Z" fill="#04BE4E"/>
</svg>
