<svg width="149" height="139" viewBox="0 0 149 139" fill="none" xmlns="http://www.w3.org/2000/svg">
<g clip-path="url(#clip0_1019_2095)">
<path d="M70.8698 14.7701C61.3288 15.0779 51.708 18.2545 43.4992 23.9007C39.3916 26.722 34.7593 30.3228 33.0629 35.304C31.5158 39.8547 33.4502 44.0804 36.3287 47.175C39.747 50.8498 44.4082 53.2402 48.8866 55.3069C54.1355 57.7256 59.6318 59.5851 64.999 61.7488C67.5684 62.7845 70.1843 63.8281 72.5763 65.2235C74.5055 66.3393 76.2398 67.906 76.4931 70.3653C76.9602 74.8112 72.6808 78.6754 69.3393 80.8166C64.632 83.842 59.3954 85.7414 54.1566 87.2076C48.9178 88.6738 43.7241 89.6231 38.4498 90.0673C28.352 90.9251 16.1546 90.6076 9.04123 82.679C7.55355 81.0217 6.2964 78.805 6.58817 76.359C6.87994 73.913 8.39863 72.0948 10.2647 70.7759C14.4692 67.7978 19.8445 67.3554 24.6103 67.4057C29.8707 67.4684 35.0236 68.4449 40.0382 69.7569C45.0528 71.069 49.8914 72.7231 54.6229 74.7027C73.78 82.7242 90.4727 96.0934 102.83 113.065C104.371 115.185 105.847 117.36 107.266 119.576C107.647 120.167 108.568 120.402 109.237 120.347C109.729 120.303 110.451 120.003 110.076 119.387C104.375 110.085 97.2979 101.745 89.3171 94.5406C81.3363 87.3361 72.24 81.1293 62.5394 76.3557C52.8387 71.582 42.4736 67.9411 31.7175 66.3041C26.346 65.4893 20.8155 65.3478 15.3444 66.352C11.0504 67.1378 5.4571 69.4887 3.86833 74.264C2.12092 79.5014 6.62042 83.8964 10.1893 86.4152C14.6871 89.5776 20.1677 91.0882 25.6273 91.732C36.4622 93.0182 48.0544 91.3948 58.7228 88.0186C63.8877 86.382 69.1593 84.3001 73.6192 80.9146C76.9153 78.4168 80.461 74.1203 79.3487 69.7332C78.7162 67.2531 76.7458 65.5624 74.7138 64.3426C72.2988 62.8976 69.6392 61.8109 67.039 60.7394C61.5249 58.4745 55.8384 56.5904 50.4112 54.1263C45.8977 52.0766 40.9857 49.6182 37.8601 45.5754C36.5719 43.9111 35.6068 41.9602 35.4282 39.7453C35.2077 37.0471 36.3347 34.4012 37.9699 32.2259C41.1984 27.9343 46.0118 24.7206 50.5727 22.2562C55.1336 19.7917 59.8533 18.1154 64.7505 17.1643C67.1375 16.7 69.5437 16.4579 71.9435 16.3777C72.4474 16.3586 73.0193 16.0378 72.7346 15.4727C72.4498 14.9076 71.4592 14.7349 70.8816 14.7491L70.8698 14.7701Z" fill="#04BE4E"/>
<path d="M92.1156 110.073C97.783 114.281 103.457 118.493 109.441 122.246C109.932 122.55 112.612 122.968 111.916 121.61C110.07 117.995 108.391 114.281 106.902 110.472C105.413 106.663 104.301 102.727 102.92 98.8771C102.603 97.991 99.6852 97.3927 99.9368 98.6193C100.79 102.713 102.336 106.692 103.847 110.523C105.358 114.354 107.078 118.146 108.953 121.814L111.428 121.179C105.636 117.553 100.128 113.499 94.6385 109.428C94.0434 108.991 93.2027 108.673 92.432 108.909C91.8481 109.086 91.5423 109.658 92.1052 110.076L92.1156 110.073Z" fill="#04BE4E"/>
</g>
<defs>
<clipPath id="clip0_1019_2095">
<rect width="117.88" height="92.7756" fill="white" transform="translate(45.583) rotate(29.4278)"/>
</clipPath>
</defs>
</svg>
