<svg width="48" height="48" viewBox="0 0 48 48" fill="none" xmlns="http://www.w3.org/2000/svg">
<path d="M10 2C8.12 2 6.38 2.66001 5 3.76001C3.16 5.22001 2 7.48 2 10C2 14.42 5.58 18 10 18C12.02 18 13.86 17.24 15.28 16C16.94 14.54 18 12.4 18 10C18 5.58 14.42 2 10 2ZM12 10.5C12 11.02 11.72 11.52 11.28 11.78L8.78003 13.28C8.54003 13.42 8.28002 13.5 8.02002 13.5C7.52002 13.5 7.01999 13.24 6.73999 12.78C6.31999 12.06 6.54001 11.14 7.26001 10.72L9.04004 9.66003V7.5C9.04004 6.68 9.72004 6 10.54 6C11.36 6 12.04 6.68 12.04 7.5V10.5H12Z" fill="#04BE4E"/>
<path opacity="0.4" d="M30 6V24C30 26.2 28.2 28 26 28H4V15.24C5.46 16.98 7.70005 18.06 10.1801 18C12.2001 17.96 14.02 17.18 15.38 15.88C16 15.36 16.52 14.7 16.92 13.98C17.64 12.76 18.04 11.3199 18 9.81995C17.94 7.47995 16.9 5.42 15.28 4H28C29.1 4 30 4.9 30 6Z" fill="#04BE4E"/>
<path d="M44 28V34C44 37.32 41.32 40 38 40H36C36 37.8 34.2 36 32 36C29.8 36 28 37.8 28 40H20C20 37.8 18.2 36 16 36C13.8 36 12 37.8 12 40H10C6.68 40 4 37.32 4 34V28H26C28.2 28 30 26.2 30 24V10H33.68C35.1201 10 36.44 10.78 37.16 12.02L40.58 18H38C36.9 18 36 18.9 36 20V26C36 27.1 36.9 28 38 28H44Z" fill="#04BE4E"/>
<path opacity="0.4" d="M16 44C18.2091 44 20 42.2091 20 40C20 37.7909 18.2091 36 16 36C13.7909 36 12 37.7909 12 40C12 42.2091 13.7909 44 16 44Z" fill="#86DA97"/>
<path opacity="0.4" d="M32 44C34.2091 44 36 42.2091 36 40C36 37.7909 34.2091 36 32 36C29.7909 36 28 37.7909 28 40C28 42.2091 29.7909 44 32 44Z" fill="#86DA97"/>
<path opacity="0.4" d="M44 25.0601V28H38C36.9 28 36 27.1 36 26V20C36 18.9 36.9 18 38 18H40.58L43.48 23.08C43.82 23.68 44 24.3601 44 25.0601Z" fill="#BAE5B4"/>
</svg>
