<svg width="32" height="26" viewBox="0 0 32 26" fill="none" xmlns="http://www.w3.org/2000/svg">
<path fill-rule="evenodd" clip-rule="evenodd" d="M31.3636 3.24326C30.226 3.74735 29.0053 4.08922 27.7228 4.24185C29.0324 3.45765 30.0348 2.21382 30.5099 0.73624C29.2815 1.46245 27.9256 1.98978 26.4809 2.27563C25.3239 1.04144 23.6783 0.272705 21.8531 0.272705C18.3514 0.272705 15.5121 3.11195 15.5121 6.61175C15.5121 7.10811 15.5681 7.59291 15.6763 8.05649C10.4073 7.79185 5.73515 5.26745 2.60813 1.43154C2.06151 2.36639 1.75055 3.45569 1.75055 4.61846C1.75055 6.81841 2.8708 8.75952 4.5705 9.89518C3.53136 9.86043 2.55403 9.57457 1.69843 9.09942V9.17862C1.69843 12.2496 3.88484 14.8127 6.78393 15.396C6.25277 15.5389 5.69267 15.6181 5.11323 15.6181C4.70378 15.6181 4.30782 15.5776 3.91959 15.5003C4.72691 18.0208 7.06787 19.8538 9.84146 19.904C7.67242 21.6037 4.93747 22.6139 1.96691 22.6139C1.45509 22.6139 0.950953 22.583 0.45459 22.5269C3.261 24.329 6.59277 25.3797 10.1737 25.3797C21.8377 25.3797 28.2135 15.7186 28.2135 7.33993L28.1922 6.51907C29.438 5.63053 30.5157 4.51417 31.3636 3.24326Z" fill="#616161"/>
</svg>
